<?xml version="1.0" encoding="iso-8859-1"?>
<!-- Uploaded to: SVG Repo, www.svgrepo.com, Generator: SVG Repo Mixer Tools -->
<svg fill="#000000" height="800px" width="800px" version="1.1" id="Layer_1" xmlns="http://www.w3.org/2000/svg" xmlns:xlink="http://www.w3.org/1999/xlink" 
	 viewBox="0 0 512 512" xml:space="preserve">
<g transform="translate(1 1)">
	<g>
		<g>
			<path d="M169.667,212.333c-61.44,0-110.933,49.493-110.933,110.933S108.227,434.2,169.667,434.2S280.6,384.707,280.6,323.267
				S231.107,212.333,169.667,212.333z M263.148,314.733h-60.435c-0.808-3.11-2.052-6.047-3.653-8.751l42.835-42.835
				C253.721,277.362,261.404,295.159,263.148,314.733z M169.667,340.333c-9.387,0-17.067-7.68-17.067-17.067
				s7.68-17.067,17.067-17.067s17.067,7.68,17.067,17.067S179.053,340.333,169.667,340.333z M187.003,293.903
				c-2.718-1.615-5.673-2.869-8.803-3.682v-60.435c19.595,1.745,37.407,9.443,51.63,21.291L187.003,293.903z M161.133,290.221
				c-3.11,0.808-6.048,2.053-8.752,3.654l-42.835-42.835c14.215-11.827,32.012-19.511,51.587-21.254V290.221z M152.331,352.63
				c2.718,1.615,5.673,2.869,8.803,3.682v60.435c-19.595-1.745-37.408-9.443-51.63-21.291L152.331,352.63z M178.2,356.312
				c3.111-0.808,6.05-2.053,8.756-3.655l42.834,42.834c-14.216,11.829-32.013,19.513-51.59,21.257V356.312z M97.475,263.104
				l42.827,42.827c-1.615,2.718-2.869,5.673-3.682,8.801H76.185C77.931,295.139,85.628,277.327,97.475,263.104z M76.185,331.8
				h60.435c0.808,3.11,2.052,6.047,3.653,8.751l-42.835,42.835C85.612,369.171,77.929,351.375,76.185,331.8z M241.86,383.426
				l-42.828-42.828c1.614-2.717,2.867-5.671,3.68-8.798h60.435C261.402,351.393,253.706,369.204,241.86,383.426z"/>
			<path d="M511,101.4c0-46.933-38.4-85.333-85.333-85.333s-85.333,38.4-85.333,85.333c0,44.054,33.834,80.586,76.8,84.903v102.83
				c0,58.661-42.85,107.796-98.794,117.659c13.987-24.729,21.994-53.236,21.994-83.526c0-93.867-76.8-170.667-170.667-170.667
				S-1,229.4-1,323.267s76.8,170.667,170.667,170.667c55.652,0,105.303-26.998,136.508-68.542
				C377.345,420.96,434.2,361.369,434.2,289.133v-102.83C477.166,181.986,511,145.454,511,101.4z M169.667,476.867
				c-84.48,0-153.6-69.12-153.6-153.6s69.12-153.6,153.6-153.6s153.6,69.12,153.6,153.6S254.147,476.867,169.667,476.867z
				 M434.2,169.11V152.6c0-5.12-3.413-8.533-8.533-8.533s-8.533,3.413-8.533,8.533v16.51c-30.756-3.882-55.295-28.421-59.177-59.177
				h16.51c5.12,0,8.533-3.413,8.533-8.533c0-5.12-3.413-8.533-8.533-8.533h-16.51c3.882-30.756,28.421-55.295,59.177-59.177V50.2
				c0,5.12,3.413,8.533,8.533,8.533S434.2,55.32,434.2,50.2V33.69c30.756,3.882,55.295,28.421,59.177,59.177h-16.51
				c-5.12,0-8.533,3.413-8.533,8.533c0,5.12,3.413,8.533,8.533,8.533h16.51C489.495,140.69,464.956,165.228,434.2,169.11z"/>
			<path d="M465.773,61.293c-3.413-3.413-8.533-3.413-11.947,0l-16.948,16.948c-3.358-1.57-7.151-2.441-11.212-2.441
				c-14.507,0-25.6,11.093-25.6,25.6c0,14.507,11.093,25.6,25.6,25.6s25.6-11.093,25.6-25.6c0-4.061-0.871-7.855-2.441-11.212
				l16.948-16.948C469.187,69.827,469.187,64.707,465.773,61.293z M425.667,109.933c-5.12,0-8.533-3.413-8.533-8.533
				c0-5.12,3.413-8.533,8.533-8.533s8.533,3.413,8.533,8.533C434.2,106.52,430.787,109.933,425.667,109.933z"/>
		</g>
	</g>
</g>
</svg>